<svg aria-hidden="true" style="width:0;height:0;position:absolute;overflow:hidden" xmlns="http://www.w3.org/2000/svg"><defs><symbol id="icon-twitter" viewBox="0 0 40 32"><path fill="#fff" style="fill:var(--color1,#fff)" d="M26.18 2.914a6.9 6.9 0 0 1 4.97 2.084 13.971 13.971 0 0 0 4.321-1.599c-.508 1.538-1.587 2.83-2.992 3.646a14.015 14.015 0 0 0 3.91-1.04 13.66 13.66 0 0 1-3.398 3.414c.013.282.02.567.02.851 0 8.713-6.848 18.76-19.372 18.76a19.733 19.733 0 0 1-10.436-2.965c.532.064 1.074.093 1.623.093 3.189 0 6.127-1.053 8.458-2.824-2.981-.051-5.497-1.959-6.36-4.577a7.01 7.01 0 0 0 3.074-.112c-3.114-.604-5.461-3.269-5.461-6.464v-.084a6.965 6.965 0 0 0 3.085.826c-1.828-1.184-3.03-3.199-3.03-5.487a6.4 6.4 0 0 1 .922-3.313c3.357 3.985 8.374 6.61 14.033 6.887a6.391 6.391 0 0 1-.177-1.502c0-3.643 3.048-6.594 6.81-6.594zm10.209 3.09zM26.18.549c-4.652 0-8.506 3.393-9.1 7.778-3.806-.763-7.267-2.775-9.754-5.726a2.367 2.367 0 0 0-1.999-.836 2.37 2.37 0 0 0-1.843 1.138 8.774 8.774 0 0 0-.707 7.609 2.369 2.369 0 0 0-.611 1.586v.084c0 2.317.917 4.466 2.441 6.079a2.35 2.35 0 0 0 .066 1.237 8.896 8.896 0 0 0 2.722 4.019 11.894 11.894 0 0 1-3.911.2 2.37 2.37 0 0 0-2.516 1.565 2.364 2.364 0 0 0 .983 2.793 22.12 22.12 0 0 0 11.687 3.322c13.476 0 21.582-10.532 21.739-20.821a15.915 15.915 0 0 0 2.905-3.147c.301-.395.479-.888.479-1.423 0-.805-.403-1.516-1.017-1.944a2.364 2.364 0 0 0-2.274-3.027 2.37 2.37 0 0 0-1.184.316 11.45 11.45 0 0 1-2.502 1.064A9.372 9.372 0 0 0 26.179.551z"/></symbol><symbol id="icon-boll" viewBox="0 0 32 32"><path fill="#fff" style="fill:var(--color1,#fff)" d="M.571 15.978c0-6.275 3.753-11.68 9.106-14.036a.939.939 0 0 1 .204-.088A14.885 14.885 0 0 1 15.685.681c8.335 0 15.116 6.862 15.116 15.296S24.02 31.272 15.685 31.272.57 24.41.57 15.977zM9.898 3.946a13.408 13.408 0 0 0-7.201 9.514c1.663.157 6.464.376 12.375-1.427-2.502-4.585-4.369-7.09-5.174-8.086zM2.461 15.978a13.42 13.42 0 0 0 3.638 9.209c.899-1.543 3.427-5.073 8.824-7.546a21.837 21.837 0 0 1 2.478-.959 45.123 45.123 0 0 0-1.415-2.934c-4.47 1.418-8.334 1.736-10.901 1.736-1.15 0-2.04-.064-2.61-.121a13.95 13.95 0 0 0-.014.615zm5.074 10.531a13.065 13.065 0 0 0 8.151 2.851c1.789 0 3.497-.361 5.055-1.016-.189-1.467-.812-5.274-2.605-9.886-.794.243-1.608.547-2.433.926-5.494 2.518-7.691 6.21-8.167 7.125zm12.453-8.519c1.591 4.134 2.266 7.596 2.539 9.437a13.422 13.422 0 0 0 6.196-9.193c-.876-.258-4.349-1.127-8.734-.244zm8.919-1.692a13.423 13.423 0 0 0-3.354-9.222c-.853 1.593-2.911 4.147-7.761 6.04l.121.235c.495.962.939 1.91 1.338 2.832 4.532-1.008 8.209-.274 9.656.114zM15.686 2.595a13.04 13.04 0 0 0-3.951.61c1.015 1.315 2.828 3.9 5.159 8.211 5.189-1.968 6.786-4.685 7.227-5.738a13.07 13.07 0 0 0-8.435-3.083z"/></symbol><symbol id="icon-facebook" viewBox="0 0 17 32"><path fill="#fff" style="fill:var(--color1,#fff)" d="M10.823 2.728c.119 0 .188.005.188.005h2.615l-.014 3.014h-2.597c-1.43 0-1.396 1.224-1.396 1.224v4.778h5.057l-.706 3.01H9.602v15.062H6.601l-.002-15.062H2.613l-.008-3.01h3.996V7.066c0-4.083 3.38-4.337 4.222-4.337zm2.802.004zM10.823.718c-.72 0-2.127.12-3.459.925-1.261.761-2.765 2.321-2.765 5.421v2.674H2.605a2.004 2.004 0 0 0-2.003 2.016l.008 3.01a2.006 2.006 0 0 0 2.002 2.002h1.984l.002 13.052c0 1.11.897 2.009 2.002 2.009h3.001c1.106 0 2.002-.9 2.002-2.009V16.766h2.365c.889 0 1.671-.588 1.921-1.443l.706-3.01a2.014 2.014 0 0 0-.319-1.77 1.998 1.998 0 0 0-1.603-.805h-3.054V7.755l1.991-.001a2.006 2.006 0 0 0 2.002-2l.014-2.912a2.005 2.005 0 0 0-1.998-2.12h-2.564a4.891 4.891 0 0 0-.243-.005z"/></symbol></defs></svg>