<svg aria-hidden="true" style="position: absolute; width: 0; height: 0; overflow: hidden;" version="1.1" xmlns="http://www.w3.org/2000/svg" xmlns:xlink="http://www.w3.org/1999/xlink">
<defs>
<symbol id="icon-twitter" viewBox="0 0 40 32">
<path fill="#fff" style="fill: var(--color1, #fff)" d="M26.18 2.914c1.957 0 3.725 0.799 4.97 2.084 1.549-0.299 3.009-0.844 4.321-1.599-0.508 1.538-1.587 2.83-2.992 3.646 1.374-0.162 2.69-0.514 3.91-1.040-0.915 1.321-2.067 2.484-3.398 3.414 0.013 0.282 0.020 0.567 0.020 0.851 0 8.713-6.848 18.76-19.372 18.76-3.844 0-7.425-1.095-10.436-2.965 0.532 0.064 1.074 0.093 1.623 0.093 3.189 0 6.127-1.053 8.458-2.824-2.981-0.051-5.497-1.959-6.36-4.577 0.415 0.077 0.842 0.119 1.282 0.119 0.619 0 1.222-0.080 1.792-0.231-3.114-0.604-5.461-3.269-5.461-6.464 0-0.029 0-0.057 0-0.084 0.919 0.494 1.968 0.791 3.085 0.826-1.828-1.184-3.030-3.199-3.030-5.487 0-1.209 0.337-2.342 0.922-3.313 3.357 3.985 8.374 6.61 14.033 6.887-0.117-0.482-0.177-0.99-0.177-1.502 0-3.643 3.048-6.594 6.81-6.594zM36.389 6.004v0zM26.18 0.549c-4.652 0-8.506 3.393-9.1 7.778-3.806-0.763-7.267-2.775-9.754-5.726-0.451-0.537-1.116-0.843-1.813-0.843-0.061 0-0.124 0.002-0.186 0.007-0.762 0.060-1.449 0.484-1.843 1.138-0.826 1.369-1.262 2.936-1.262 4.533 0 1.066 0.192 2.104 0.555 3.076-0.387 0.429-0.611 0.992-0.611 1.586v0.084c0 2.317 0.917 4.466 2.441 6.079-0.088 0.404-0.068 0.83 0.066 1.237 0.525 1.596 1.482 2.972 2.722 4.019-0.833 0.184-1.692 0.277-2.569 0.277-0.464 0-0.915-0.025-1.342-0.077-0.095-0.011-0.189-0.016-0.282-0.016-0.995 0-1.898 0.626-2.234 1.581-0.368 1.046 0.040 2.207 0.983 2.793 3.499 2.174 7.541 3.322 11.687 3.322 13.476 0 21.582-10.532 21.739-20.821 1.103-0.911 2.078-1.966 2.905-3.147 0.301-0.395 0.479-0.888 0.479-1.423 0-0.805-0.403-1.516-1.017-1.944 0.266-0.91-0.038-1.895-0.778-2.497-0.433-0.351-0.963-0.53-1.496-0.53-0.407 0-0.816 0.104-1.184 0.316-0.783 0.45-1.621 0.807-2.502 1.064-1.595-1.197-3.574-1.864-5.605-1.864z"></path>
</symbol>
<symbol id="icon-boll" viewBox="0 0 32 32">
<path fill="#fff" style="fill: var(--color1, #fff)" d="M0.571 15.978c0-6.275 3.753-11.68 9.106-14.036 0.065-0.038 0.134-0.067 0.204-0.088 1.788-0.755 3.749-1.173 5.804-1.173 8.335 0 15.116 6.862 15.116 15.296 0 8.434-6.781 15.295-15.116 15.295s-15.115-6.862-15.115-15.295zM9.898 3.946c-3.682 1.822-6.41 5.324-7.201 9.514 1.663 0.157 6.464 0.376 12.375-1.427-2.502-4.585-4.369-7.090-5.174-8.086zM2.461 15.978c0 3.565 1.385 6.809 3.638 9.209 0.899-1.543 3.427-5.073 8.824-7.546 0.841-0.385 1.669-0.702 2.478-0.959-0.352-0.802-0.739-1.621-1.164-2.45-0.084-0.164-0.168-0.325-0.251-0.484-4.47 1.418-8.334 1.736-10.901 1.736-1.15 0-2.040-0.064-2.61-0.121-0.009 0.204-0.014 0.409-0.014 0.615zM7.535 26.509c2.248 1.785 5.079 2.851 8.151 2.851 1.789 0 3.497-0.361 5.055-1.016-0.189-1.467-0.812-5.274-2.605-9.886-0.794 0.243-1.608 0.547-2.433 0.926-5.494 2.518-7.691 6.21-8.167 7.125zM19.988 17.99c1.591 4.134 2.266 7.596 2.539 9.437 3.217-1.976 5.54-5.301 6.196-9.193-0.876-0.258-4.349-1.127-8.734-0.244zM28.907 16.298c0.002-0.106 0.004-0.213 0.004-0.32 0-3.415-1.271-6.535-3.358-8.902-0.853 1.593-2.911 4.147-7.761 6.040l0.121 0.235c0.495 0.962 0.939 1.91 1.338 2.832 4.532-1.008 8.209-0.274 9.656 0.114zM15.686 2.595c-1.376 0-2.703 0.214-3.951 0.61 1.015 1.315 2.828 3.9 5.159 8.211 5.189-1.968 6.786-4.685 7.227-5.738-2.291-1.925-5.232-3.083-8.435-3.083z"></path>
</symbol>
<symbol id="icon-facebook" viewBox="0 0 17 32">
<path fill="#fff" style="fill: var(--color1, #fff)" d="M10.823 2.728c0.119 0 0.188 0.005 0.188 0.005h2.615l-0.014 3.014h-2.597c-1.43 0-1.396 1.224-1.396 1.224v4.778h5.057l-0.706 3.010h-4.368v15.062h-3.001l-0.002-15.062h-3.986l-0.008-3.010h3.996c0 0 0-3.685 0-4.683 0-4.083 3.38-4.337 4.222-4.337zM13.625 2.732v0zM10.823 0.718c-0.72 0-2.127 0.12-3.459 0.925-1.261 0.761-2.765 2.321-2.765 5.421v2.674h-1.994c-0.532 0-1.042 0.213-1.419 0.591-0.375 0.378-0.586 0.891-0.584 1.425l0.008 3.010c0.004 1.106 0.899 2.002 2.002 2.002h1.984l0.002 13.052c0 1.11 0.897 2.009 2.002 2.009h3.001c1.106 0 2.002-0.9 2.002-2.009v-13.052h2.365c0.889 0 1.671-0.588 1.921-1.443l0.706-3.010c0.178-0.607 0.059-1.264-0.319-1.77-0.377-0.507-0.972-0.805-1.603-0.805h-3.054v-1.983l1.991-0.001c1.102 0 1.997-0.894 2.002-2l0.014-2.912c0.002-0.037 0.003-0.073 0.003-0.111 0-1.109-0.895-2.009-2.001-2.009h-2.564c-0.057-0.003-0.14-0.005-0.243-0.005z"></path>
</symbol>
</defs>
</svg>
